<?xml version="1.0" encoding="UTF-8"?>
<svg width="55px" height="50px" viewBox="0 0 55 50" version="1.1" xmlns="http://www.w3.org/2000/svg" xmlns:xlink="http://www.w3.org/1999/xlink">
    <!-- Generator: Sketch 42 (36781) - http://www.bohemiancoding.com/sketch -->
    <title>Fill 10</title>
    <desc>Created with Sketch.</desc>
    <defs></defs>
    <g id="Page-1" stroke="none" stroke-width="1" fill="none" fill-rule="evenodd">
        <path d="M37.0057913,38.5258621 C36.8378931,38.8390805 36.5310445,39.0373563 36.1981428,39.0373563 L18.8061995,39.0373563 C18.470403,39.0373563 18.1577648,38.8390805 18.0014458,38.5258621 C17.8393371,38.2126437 17.8393371,37.8247126 18.0159197,37.5143678 L26.717681,22.1465517 C26.8855793,21.8505747 27.1779538,21.6695402 27.5021711,21.6695402 C27.8234937,21.6695402 28.118763,21.8505747 28.2837665,22.1465517 L36.9855277,37.5143678 C37.1592156,37.8247126 37.1650052,38.2126437 37.0057913,38.5258621 M54.6119497,45.6264368 L29.748534,1.37356322 C29.2708924,0.520114943 28.4169271,0 27.5021711,0 C26.5845203,0 25.7305551,0.520114943 25.2529135,1.37356322 L0.389497793,45.6264368 C-0.111302174,46.5114943 -0.128670959,47.6235632 0.334496641,48.5316092 C0.800559037,49.4367816 1.68057748,50 2.63586065,50 L52.3655868,50 C53.3179752,50 54.1979936,49.4396552 54.664056,48.5316092 C55.1301184,47.6235632 55.1098549,46.5114943 54.6119497,45.6264368" id="Fill-10" fill="#FFFFFF"></path>
    </g>
</svg>